<?xml version="1.0" encoding="utf-8"?>
<!-- Generator: Adobe Illustrator 23.0.2, SVG Export Plug-In . SVG Version: 6.00 Build 0)  -->
<svg version="1.1" id="Layer_1" xmlns="http://www.w3.org/2000/svg" xmlns:xlink="http://www.w3.org/1999/xlink" x="0px" y="0px"
	 viewBox="0 0 792 612" style="enable-background:new 0 0 792 612;" xml:space="preserve">
<style type="text/css">
	.st0{fill:none;}
</style>
<rect x="154.37" y="236.35" class="st0" width="483" height="140.25"/>
<g>
	<path d="M448.48,296.1c-1.75-2.58-2.75-5.73-2.75-9.11v-0.14c0-8.55,6.27-15.53,15.3-15.53h0.14c9.04,0,15.3,6.98,15.3,15.53v0.14
		c0,2.7-0.54,5.19-1.52,7.34l-3.08-2.71l-6.93,7.92c6.05,1.01,12.32,1.79,18.77,2.32l-0.01-0.01c2.92-4.22,4.52-9.18,4.52-14.5
		v-0.14c0-14.5-11.29-26.23-27.03-26.23c-15.73,0-27.18,11.88-27.18,26.38v0.15c0,1.5,0.13,2.97,0.36,4.4
		C438.86,293.46,443.58,294.86,448.48,296.1z"/>
	<path d="M526.65,301.79c3.52-0.29,7-0.64,10.44-1.06c1.03-2.88,1.57-6.25,1.57-10.11v-28.78h-11.22v29.21c0,5.61-2,9.32-5.5,11.07
		C523.5,302.03,525.07,301.92,526.65,301.79z"/>
	<path d="M557.75,297.42v-35.57h-11.22v37.58C550.33,298.83,554.06,298.16,557.75,297.42z"/>
	<path d="M577.63,292.54v-12.12l7.47,9.81c3.61-1.18,7.12-2.44,10.54-3.77l-18.74-24.62h-10.35v33.63
		C570.33,294.57,574.02,293.6,577.63,292.54z"/>
	<path d="M512.07,302.6c-4.21-1.53-6.64-5.54-6.64-11.89v-28.85h-11.22v29.14c0,4.54,0.77,8.4,2.21,11.58
		C501.56,302.74,506.78,302.75,512.07,302.6z"/>
	<path d="M566.56,300.53v12.32h11.07v-14.29C573.99,299.27,570.3,299.92,566.56,300.53z"/>
	<path d="M546.52,303.22v9.63h11.22v-11C554.05,302.35,550.31,302.81,546.52,303.22z"/>
	<path d="M534.81,304.31c-12.59,0.98-24.89,1.34-36.79,1.12c3.73,5.46,10.03,8.22,18.26,8.22c8.77,0,15.47-3.11,19.16-9.39
		C535.23,304.28,535.02,304.29,534.81,304.31z"/>
	<path d="M458.86,302.51c-0.09-0.01-0.18-0.02-0.27-0.04c-7.73-1.05-15.15-2.37-22.21-3.93c4.11,8.97,13.2,15.18,24.65,15.18
		c5.68,0,10.93-1.68,15.22-4.45l8.05,7.2l7.18-8.14l-3.89-3.24C477.65,304.63,468.04,303.75,458.86,302.51z"/>
	<path d="M600.8,293.25L600.8,293.25c-3.69,0.98-7.45,1.91-11.27,2.79l12.8,16.8h9.55v-22.77
		C608.26,291.19,604.57,292.24,600.8,293.25L600.8,293.25z"/>
	<path d="M600.8,261.85v22.54c3.83-1.61,7.52-3.31,11.07-5.08v-17.46H600.8z"/>
	<path d="M272.51,277.28c3.94-0.24,7.84-0.43,11.71-0.57c2.67-3.29,6.58-5.39,10.98-5.39c5.9,0,9.4,1.89,13.34,5.17l7.07-8.52
		c-5.32-4.52-10.86-7-20.04-7c-11.7,0-21.01,6.82-24.84,16.42C271.32,277.36,271.92,277.32,272.51,277.28z"/>
	<path d="M336.61,277.99c2.66-4.03,7.13-6.67,12.62-6.67c6.91,0,12.28,4.26,14.43,10.17c4.34,0.76,8.53,1.59,12.55,2.49
		c-1.54-12.98-12.28-23.01-26.84-23.01c-11.79,0-21.17,6.67-25.13,16.12C328.44,277.33,332.57,277.63,336.61,277.99z"/>
	<path d="M248.15,279.42v-17.57h-11.22v19.02C240.61,280.34,244.36,279.86,248.15,279.42z"/>
	<path d="M416.59,293.25L416.59,293.25L416.59,293.25l-23.9-31.4h-10.34v23.61c3.86,0.98,7.56,2.04,11.07,3.16v-8.18l24.7,32.42
		h9.55v-16.4C423.85,295.46,420.15,294.39,416.59,293.25L416.59,293.25z"/>
	<path d="M382.35,312.85h11.07v-14.99c-3.52-1.71-7.21-3.31-11.07-4.81V312.85z"/>
	<path d="M416.59,261.85v22.54c3.49,1.79,7.19,3.46,11.07,5.01v-27.55H416.59z"/>
	<path d="M364.68,287.29c0,0.02,0,0.04,0,0.06v0.15c0,8.74-6.27,15.88-15.3,15.88c-9.03,0-15.45-7.29-15.45-16.03v-0.14
		c0-2.04,0.34-3.98,0.98-5.77c-3.84-0.5-7.76-0.92-11.73-1.25c-0.64,2.28-0.98,4.68-0.98,7.16v0.15c0,14.5,11.29,26.23,27.03,26.23
		c14.46,0,25.29-10.04,26.95-22.92C372.48,289.54,368.64,288.37,364.68,287.29z"/>
	<path d="M295.27,293.18h11.29v7.29c-2.84,2.04-6.48,3.06-10.56,3.06c-9.04,0-15.45-6.85-15.45-16.18v-0.14
		c0-2.69,0.62-5.24,1.73-7.48c-2.11,0.12-4.23,0.27-6.36,0.43c-2.11,0.17-4.2,0.36-6.29,0.57c-0.53,2.12-0.81,4.34-0.81,6.62v0.15
		c0,15.08,10.93,26.23,26.81,26.23c9.32,0,16.54-3.64,21.78-8.09v-22.15h-22.15V293.18z"/>
	<path d="M248.15,283.67c-3.8,0.66-7.54,1.39-11.22,2.19v26.99h31.86v-10.55h-20.64V283.67z"/>
	<path d="M183.7,303.87l-3.82,8.98h11.44l4.31-10.55h22.27l4.31,10.55h11.73l-10.13-23.8C209.13,293.01,195.63,298.03,183.7,303.87z
		"/>
	<path d="M201.61,287.53l5.15-12.57l4.27,10.45c3.39-0.71,6.84-1.39,10.36-2.03l-9.32-21.89h-10.34l-12.46,29.27
		C193.26,289.63,197.37,288.55,201.61,287.53z"/>
</g>
<g>
	<path d="M409.24,336.31v-0.08c0-8.46,6.33-15.38,15.34-15.38c5.48,0,8.8,1.91,11.64,4.63l-3.36,3.87c-2.38-2.21-4.93-3.7-8.33-3.7
		c-5.7,0-9.82,4.67-9.82,10.5v0.09c0,5.82,4.12,10.58,9.82,10.58c3.66,0,5.99-1.49,8.54-3.87l3.36,3.4
		c-3.11,3.23-6.5,5.27-12.07,5.27C415.7,351.61,409.24,344.85,409.24,336.31z"/>
	<path d="M439.19,336.31v-0.08c0-8.37,6.46-15.38,15.6-15.38c9.14,0,15.51,6.93,15.51,15.3v0.09c0,8.37-6.46,15.38-15.6,15.38
		C445.56,351.61,439.19,344.68,439.19,336.31z M464.81,336.31v-0.08c0-5.78-4.21-10.58-10.11-10.58c-5.91,0-10.03,4.72-10.03,10.5
		v0.09c0,5.78,4.21,10.58,10.12,10.58C460.69,346.81,464.81,342.09,464.81,336.31z"/>
	<path d="M475.69,321.35h5.23v24.99h15.64v4.76h-20.87V321.35z"/>
	<path d="M501.97,321.35h5.23v24.99h15.64v4.76h-20.87V321.35z"/>
	<path d="M528.24,321.35h22.06v4.67h-16.83v7.73h14.91v4.68h-14.91v7.99h17.04v4.67h-22.27V321.35z"/>
	<path d="M555,336.31v-0.08c0-8.33,6.38-15.38,15.34-15.38c5.19,0,8.38,1.45,11.43,4.04l-3.31,3.95c-2.3-1.95-4.55-3.19-8.33-3.19
		c-5.48,0-9.65,4.8-9.65,10.5v0.09c0,6.12,4.04,10.62,10.12,10.62c2.8,0,5.36-0.89,7.18-2.25v-5.57h-7.61v-4.55h12.66v12.49
		c-2.93,2.51-7.14,4.63-12.41,4.63C561.12,351.61,555,344.98,555,336.31z"/>
	<path d="M589.61,321.35h22.05v4.67h-16.83v7.73h14.92v4.68h-14.92v7.99h17.04v4.67h-22.27V321.35z"/>
</g>
</svg>
